<svg xmlns="http://www.w3.org/2000/svg" xmlns:xlink="http://www.w3.org/1999/xlink" width="140" zoomAndPan="magnify" viewBox="0 100 375 150" height="90" preserveAspectRatio="xMidYMid meet" version="1.0"><defs><g/><clipPath id="2b08af51d3"><rect x="0" width="197" y="0" height="71"/></clipPath><clipPath id="11e7f2fb22"><rect x="0" width="70" y="0" height="60"/></clipPath><clipPath id="79e6924f19"><rect x="0" width="94" y="0" height="77"/></clipPath><clipPath id="cacbae5ae2"><path d="M 44.089844 214.113281 L 200.316406 214.113281 L 200.316406 229.15625 L 44.089844 229.15625 Z M 44.089844 214.113281 " clip-rule="nonzero"/></clipPath><clipPath id="4e37873e27"><path d="M 51.609375 214.113281 L 192.777344 214.113281 C 196.929688 214.113281 200.296875 217.480469 200.296875 221.632812 C 200.296875 225.789062 196.929688 229.15625 192.777344 229.15625 L 51.609375 229.15625 C 47.457031 229.15625 44.089844 225.789062 44.089844 221.632812 C 44.089844 217.480469 47.457031 214.113281 51.609375 214.113281 Z M 51.609375 214.113281 " clip-rule="nonzero"/></clipPath><clipPath id="d1e565ddc8"><path d="M 0.0898438 0.113281 L 156.316406 0.113281 L 156.316406 15.15625 L 0.0898438 15.15625 Z M 0.0898438 0.113281 " clip-rule="nonzero"/></clipPath><clipPath id="4ebb686534"><path d="M 7.609375 0.113281 L 148.777344 0.113281 C 152.929688 0.113281 156.296875 3.480469 156.296875 7.632812 C 156.296875 11.789062 152.929688 15.15625 148.777344 15.15625 L 7.609375 15.15625 C 3.457031 15.15625 0.0898438 11.789062 0.0898438 7.632812 C 0.0898438 3.480469 3.457031 0.113281 7.609375 0.113281 Z M 7.609375 0.113281 " clip-rule="nonzero"/></clipPath><clipPath id="b27673f172"><rect x="0" width="157" y="0" height="16"/></clipPath><clipPath id="d4e24669b8"><rect x="0" width="42" y="0" height="12"/></clipPath><clipPath id="694ca9cd8b"><path d="M 0.121094 2 L 8 2 L 8 10 L 0.121094 10 Z M 0.121094 2 " clip-rule="nonzero"/></clipPath><clipPath id="414a40bfec"><rect x="0" width="39" y="0" height="13"/></clipPath><clipPath id="040f2ff311"><rect x="0" width="7" y="0" height="20"/></clipPath><clipPath id="6db361e4cd"><rect x="0" width="6" y="0" height="20"/></clipPath><clipPath id="1d9565a144"><rect x="0" width="26" y="0" height="13"/></clipPath></defs><g transform="matrix(1, 0, 0, 1, 46, 162)"><g clip-path="url(#2b08af51d3)"><g fill="#ffffff" fill-opacity="1"><g transform="translate(0.845562, 50.599151)"><g><path d="M 40.96875 0 L 38.8125 -27 L 38.546875 -27 L 29.203125 -0.28125 L 23.03125 -0.28125 L 13.6875 -27 L 13.421875 -27 L 11.265625 0 L 0.890625 0 L 4.96875 -45.5625 L 16.015625 -45.5625 L 26.125 -19.265625 L 36.21875 -45.5625 L 47.265625 -45.5625 L 51.359375 0 Z M 40.96875 0 "/></g></g></g><g fill="#ffffff" fill-opacity="1"><g transform="translate(48.822399, 50.599151)"><g><path d="M 31.96875 -12.8125 L 11.4375 -12.8125 C 11.4375 -10.820312 12.078125 -9.347656 13.359375 -8.390625 C 14.648438 -7.429688 16.050781 -6.953125 17.5625 -6.953125 C 19.144531 -6.953125 20.394531 -7.164062 21.3125 -7.59375 C 22.226562 -8.019531 23.28125 -8.859375 24.46875 -10.109375 L 31.53125 -6.578125 C 28.582031 -1.640625 23.6875 0.828125 16.84375 0.828125 C 12.570312 0.828125 8.90625 -0.632812 5.84375 -3.5625 C 2.789062 -6.488281 1.265625 -10.015625 1.265625 -14.140625 C 1.265625 -18.265625 2.789062 -21.796875 5.84375 -24.734375 C 8.90625 -27.679688 12.570312 -29.15625 16.84375 -29.15625 C 21.332031 -29.15625 24.984375 -27.859375 27.796875 -25.265625 C 30.617188 -22.671875 32.03125 -18.960938 32.03125 -14.140625 C 32.03125 -13.472656 32.007812 -13.03125 31.96875 -12.8125 Z M 11.703125 -18.21875 L 22.46875 -18.21875 C 22.25 -19.695312 21.671875 -20.832031 20.734375 -21.625 C 19.796875 -22.414062 18.59375 -22.8125 17.125 -22.8125 C 15.5 -22.8125 14.207031 -22.382812 13.25 -21.53125 C 12.289062 -20.6875 11.773438 -19.582031 11.703125 -18.21875 Z M 11.703125 -18.21875 "/></g></g></g><g fill="#ffffff" fill-opacity="1"><g transform="translate(77.751872, 50.599151)"><g><path d="M 3.3125 0 L 3.3125 -47.484375 L 13.09375 -47.484375 L 13.09375 0 Z M 3.3125 0 "/></g></g></g><g fill="#ffffff" fill-opacity="1"><g transform="translate(89.897596, 50.599151)"><g><path d="M 4.96875 -28.328125 L 4.96875 -38.875 L 14.75 -38.875 L 14.75 -28.328125 L 20.703125 -28.328125 L 20.703125 -20.875 L 14.75 -20.875 L 14.75 -11.875 C 14.75 -9.257812 15.484375 -7.953125 16.953125 -7.953125 C 17.316406 -7.953125 17.703125 -8.023438 18.109375 -8.171875 C 18.515625 -8.316406 18.828125 -8.460938 19.046875 -8.609375 L 19.375 -8.828125 L 21.8125 -0.9375 C 19.707031 0.238281 17.316406 0.828125 14.640625 0.828125 C 12.796875 0.828125 11.207031 0.503906 9.875 -0.140625 C 8.550781 -0.785156 7.550781 -1.648438 6.875 -2.734375 C 6.195312 -3.816406 5.707031 -4.957031 5.40625 -6.15625 C 5.113281 -7.351562 4.96875 -8.632812 4.96875 -10 L 4.96875 -20.875 L 0.890625 -20.875 L 0.890625 -28.328125 Z M 4.96875 -28.328125 "/></g></g></g><g fill="#ffffff" fill-opacity="1"><g transform="translate(107.453876, 50.599151)"><g><path d="M 4.25 -44.109375 C 5.394531 -45.253906 6.757812 -45.828125 8.34375 -45.828125 C 9.925781 -45.828125 11.285156 -45.253906 12.421875 -44.109375 C 13.566406 -42.972656 14.140625 -41.613281 14.140625 -40.03125 C 14.140625 -38.445312 13.566406 -37.082031 12.421875 -35.9375 C 11.285156 -34.800781 9.925781 -34.234375 8.34375 -34.234375 C 6.757812 -34.234375 5.394531 -34.800781 4.25 -35.9375 C 3.113281 -37.082031 2.546875 -38.445312 2.546875 -40.03125 C 2.546875 -41.613281 3.113281 -42.972656 4.25 -44.109375 Z M 3.3125 -28.328125 L 3.3125 0 L 13.09375 0 L 13.09375 -28.328125 Z M 3.3125 -28.328125 "/></g></g></g><g fill="#ffffff" fill-opacity="1"><g transform="translate(119.875656, 50.599151)"><g><path d="M 3.3125 0 L 3.3125 -28.328125 L 13.09375 -28.328125 L 13.09375 -25.34375 L 13.203125 -25.34375 C 15.734375 -27.882812 18.4375 -29.15625 21.3125 -29.15625 C 22.707031 -29.15625 24.09375 -28.96875 25.46875 -28.59375 C 26.851562 -28.226562 28.179688 -27.660156 29.453125 -26.890625 C 30.722656 -26.117188 31.753906 -25.023438 32.546875 -23.609375 C 33.335938 -22.191406 33.734375 -20.539062 33.734375 -18.65625 L 33.734375 0 L 23.96875 0 L 23.96875 -16.015625 C 23.96875 -17.484375 23.5 -18.769531 22.5625 -19.875 C 21.625 -20.976562 20.398438 -21.53125 18.890625 -21.53125 C 17.410156 -21.53125 16.070312 -20.957031 14.875 -19.8125 C 13.6875 -18.675781 13.09375 -17.410156 13.09375 -16.015625 L 13.09375 0 Z M 3.3125 0 "/></g></g></g><g fill="#ffffff" fill-opacity="1"><g transform="translate(152.117724, 50.599151)"><g><path d="M 2.046875 6.953125 L 10.046875 3.03125 C 11.523438 5.46875 14.082031 6.6875 17.71875 6.6875 C 19.414062 6.6875 20.988281 6.140625 22.4375 5.046875 C 23.894531 3.960938 24.625 2.300781 24.625 0.0625 L 24.625 -2.046875 C 22.894531 -0.128906 19.800781 0.828125 15.34375 0.828125 C 11.257812 0.828125 7.890625 -0.613281 5.234375 -3.5 C 2.585938 -6.394531 1.265625 -9.941406 1.265625 -14.140625 C 1.265625 -18.335938 2.585938 -21.890625 5.234375 -24.796875 C 7.890625 -27.703125 11.257812 -29.15625 15.34375 -29.15625 C 18.988281 -29.15625 22.03125 -28.03125 24.46875 -25.78125 L 24.625 -25.78125 L 24.625 -28.328125 L 34.40625 -28.328125 L 34.40625 0.765625 C 34.40625 5.367188 32.875 8.921875 29.8125 11.421875 C 26.757812 13.929688 22.726562 15.1875 17.71875 15.1875 C 9.625 15.1875 4.398438 12.441406 2.046875 6.953125 Z M 13.5625 -18.9375 C 12.289062 -17.6875 11.65625 -16.082031 11.65625 -14.125 C 11.65625 -12.175781 12.257812 -10.585938 13.46875 -9.359375 C 14.6875 -8.128906 16.289062 -7.515625 18.28125 -7.515625 C 20.195312 -7.515625 21.769531 -8.140625 23 -9.390625 C 24.226562 -10.640625 24.84375 -12.222656 24.84375 -14.140625 C 24.84375 -16.085938 24.207031 -17.6875 22.9375 -18.9375 C 21.664062 -20.1875 20.113281 -20.8125 18.28125 -20.8125 C 16.40625 -20.8125 14.832031 -20.1875 13.5625 -18.9375 Z M 13.5625 -18.9375 "/></g></g></g><g fill="#ffffff" fill-opacity="1"><g transform="translate(185.579272, 50.599151)"><g/></g></g></g></g><g transform="matrix(1, 0, 0, 1, 167, 135)"><g clip-path="url(#11e7f2fb22)"><g fill="#f52d32" fill-opacity="1"><g transform="translate(1.274321, 43.562363)"><g><path d="M 24.03125 -0.640625 C 24.03125 -0.523438 23.953125 -0.460938 23.796875 -0.453125 C 23.648438 -0.441406 23.5 -0.4375 23.34375 -0.4375 C 23.269531 -0.425781 23.195312 -0.410156 23.125 -0.390625 C 23.050781 -0.367188 22.972656 -0.34375 22.890625 -0.3125 C 22.804688 -0.289062 22.726562 -0.242188 22.65625 -0.171875 C 22.6875 -0.0234375 22.695312 0.0820312 22.6875 0.15625 C 22.6875 0.238281 22.6875 0.304688 22.6875 0.359375 L 22.65625 0.4375 C 22.613281 0.5 22.523438 0.546875 22.390625 0.578125 C 22.265625 0.617188 22.125 0.640625 21.96875 0.640625 C 21.945312 0.640625 21.90625 0.628906 21.84375 0.609375 C 21.738281 0.585938 21.632812 0.515625 21.53125 0.390625 C 21.28125 0.316406 20.988281 0.242188 20.65625 0.171875 C 20.476562 0.128906 20.285156 0.0859375 20.078125 0.046875 C 19.921875 0.00390625 19.78125 -0.109375 19.65625 -0.296875 C 19.539062 -0.492188 19.4375 -0.71875 19.34375 -0.96875 C 19.25 -1.226562 19.160156 -1.492188 19.078125 -1.765625 C 18.992188 -2.046875 18.925781 -2.285156 18.875 -2.484375 L 16.703125 -9.296875 C 16.378906 -9.296875 15.972656 -9.289062 15.484375 -9.28125 C 14.992188 -9.28125 14.46875 -9.273438 13.90625 -9.265625 C 13.351562 -9.253906 12.785156 -9.238281 12.203125 -9.21875 C 11.628906 -9.195312 11.109375 -9.179688 10.640625 -9.171875 L 6.234375 -8.953125 L 3.65625 -2.203125 C 3.613281 -2.128906 3.550781 -1.984375 3.46875 -1.765625 C 3.382812 -1.546875 3.296875 -1.3125 3.203125 -1.0625 C 3.117188 -0.820312 3.039062 -0.59375 2.96875 -0.375 C 2.894531 -0.164062 2.851562 -0.0390625 2.84375 0 C 2.8125 0.113281 2.722656 0.1875 2.578125 0.21875 C 2.429688 0.25 2.304688 0.28125 2.203125 0.3125 C 2.117188 0.34375 2.046875 0.421875 1.984375 0.546875 C 1.921875 0.679688 1.832031 0.769531 1.71875 0.8125 C 1.601562 0.882812 1.457031 0.890625 1.28125 0.828125 C 1.101562 0.773438 0.945312 0.679688 0.8125 0.546875 C 0.695312 0.398438 0.65625 0.210938 0.6875 -0.015625 C 0.71875 -0.242188 0.734375 -0.484375 0.734375 -0.734375 C 0.734375 -0.984375 0.726562 -1.21875 0.71875 -1.4375 C 0.707031 -1.65625 0.738281 -1.867188 0.8125 -2.078125 C 0.84375 -2.160156 0.9375 -2.429688 1.09375 -2.890625 C 1.25 -3.359375 1.441406 -3.914062 1.671875 -4.5625 C 1.910156 -5.21875 2.164062 -5.929688 2.4375 -6.703125 C 2.71875 -7.484375 3.007812 -8.234375 3.3125 -8.953125 C 3.039062 -8.953125 2.851562 -9.023438 2.75 -9.171875 C 2.675781 -9.285156 2.585938 -9.351562 2.484375 -9.375 C 2.390625 -9.394531 2.28125 -9.429688 2.15625 -9.484375 C 2.039062 -9.503906 1.957031 -9.566406 1.90625 -9.671875 C 1.863281 -9.773438 1.859375 -9.863281 1.890625 -9.9375 C 1.921875 -10.03125 1.898438 -10.101562 1.828125 -10.15625 C 1.753906 -10.21875 1.71875 -10.351562 1.71875 -10.5625 C 1.71875 -10.644531 1.785156 -10.726562 1.921875 -10.8125 C 2.066406 -10.894531 2.238281 -10.960938 2.4375 -11.015625 C 2.644531 -11.078125 2.878906 -11.128906 3.140625 -11.171875 C 3.398438 -11.210938 3.644531 -11.25 3.875 -11.28125 C 3.925781 -11.28125 3.984375 -11.28125 4.046875 -11.28125 C 4.109375 -11.28125 4.175781 -11.296875 4.25 -11.328125 C 4.570312 -12.109375 4.9375 -12.945312 5.34375 -13.84375 C 5.757812 -14.75 6.1875 -15.671875 6.625 -16.609375 C 7.0625 -17.554688 7.5 -18.5 7.9375 -19.4375 C 8.375 -20.375 8.789062 -21.257812 9.1875 -22.09375 C 9.582031 -22.925781 9.945312 -23.6875 10.28125 -24.375 C 10.613281 -25.0625 10.890625 -25.632812 11.109375 -26.09375 C 10.929688 -26.632812 10.769531 -27.132812 10.625 -27.59375 C 10.488281 -28.050781 10.367188 -28.445312 10.265625 -28.78125 C 10.160156 -29.125 10.078125 -29.394531 10.015625 -29.59375 C 9.960938 -29.789062 9.9375 -29.90625 9.9375 -29.9375 C 9.925781 -29.957031 9.925781 -29.984375 9.9375 -30.015625 C 9.96875 -30.085938 10.039062 -30.132812 10.15625 -30.15625 C 10.039062 -30.375 9.984375 -30.535156 9.984375 -30.640625 C 9.984375 -30.691406 10 -30.726562 10.03125 -30.75 C 10.0625 -30.78125 10.132812 -30.804688 10.25 -30.828125 C 10.363281 -30.859375 10.488281 -30.882812 10.625 -30.90625 C 10.757812 -30.9375 10.882812 -30.953125 11 -30.953125 C 11.113281 -30.960938 11.191406 -30.96875 11.234375 -30.96875 C 11.253906 -30.96875 11.289062 -30.960938 11.34375 -30.953125 C 11.4375 -30.921875 11.5625 -30.851562 11.71875 -30.75 C 11.738281 -30.820312 11.757812 -30.875 11.78125 -30.90625 C 11.800781 -30.9375 11.828125 -30.960938 11.859375 -30.984375 L 11.921875 -31.0625 C 12.015625 -31.101562 12.109375 -31.113281 12.203125 -31.09375 C 12.304688 -31.070312 12.40625 -31.0625 12.5 -31.0625 C 12.582031 -31.0625 12.640625 -31.097656 12.671875 -31.171875 C 12.710938 -31.242188 12.804688 -31.28125 12.953125 -31.28125 C 13.148438 -31.28125 13.3125 -31.070312 13.4375 -30.65625 C 13.457031 -30.582031 13.5625 -30.304688 13.75 -29.828125 C 13.945312 -29.347656 14.191406 -28.722656 14.484375 -27.953125 C 14.773438 -27.179688 15.113281 -26.289062 15.5 -25.28125 C 15.894531 -24.269531 16.304688 -23.191406 16.734375 -22.046875 C 17.160156 -20.910156 17.585938 -19.734375 18.015625 -18.515625 C 18.453125 -17.304688 18.867188 -16.113281 19.265625 -14.9375 C 20.085938 -12.539062 20.773438 -10.519531 21.328125 -8.875 C 21.890625 -7.226562 22.34375 -5.882812 22.6875 -4.84375 C 23.03125 -3.800781 23.285156 -3.019531 23.453125 -2.5 C 23.628906 -1.988281 23.738281 -1.6875 23.78125 -1.59375 C 23.851562 -1.351562 23.910156 -1.160156 23.953125 -1.015625 C 24.003906 -0.878906 24.03125 -0.753906 24.03125 -0.640625 Z M 14.53125 -15.71875 C 14.144531 -16.800781 13.726562 -18.019531 13.28125 -19.375 C 12.832031 -20.726562 12.394531 -22.066406 11.96875 -23.390625 C 11.71875 -22.742188 11.414062 -21.960938 11.0625 -21.046875 C 10.707031 -20.140625 10.335938 -19.203125 9.953125 -18.234375 C 9.566406 -17.265625 9.1875 -16.316406 8.8125 -15.390625 C 8.445312 -14.460938 8.125 -13.664062 7.84375 -13 L 7.234375 -11.546875 L 11.203125 -11.796875 C 11.535156 -11.796875 11.9375 -11.800781 12.40625 -11.8125 C 13.195312 -11.832031 14.34375 -11.851562 15.84375 -11.875 Z M 14.53125 -15.71875 "/></g></g></g><g fill="#f52d32" fill-opacity="1"><g transform="translate(22.207716, 43.562363)"><g><path d="M 15.203125 -17.328125 C 15.253906 -17.234375 15.28125 -17.140625 15.28125 -17.046875 C 15.289062 -16.960938 15.296875 -16.863281 15.296875 -16.75 C 15.296875 -16.28125 15.046875 -15.785156 14.546875 -15.265625 C 14.054688 -14.753906 13.285156 -14.285156 12.234375 -13.859375 C 12.015625 -13.773438 11.816406 -13.734375 11.640625 -13.734375 C 11.421875 -13.734375 11.234375 -13.796875 11.078125 -13.921875 C 10.921875 -14.046875 10.84375 -14.175781 10.84375 -14.3125 C 10.84375 -14.394531 10.894531 -14.492188 11 -14.609375 C 11.113281 -14.734375 11.234375 -14.851562 11.359375 -14.96875 C 11.484375 -15.082031 11.597656 -15.191406 11.703125 -15.296875 C 11.816406 -15.398438 11.875 -15.484375 11.875 -15.546875 C 11.875 -15.660156 11.78125 -15.71875 11.59375 -15.71875 C 11.300781 -15.71875 10.925781 -15.628906 10.46875 -15.453125 C 10.007812 -15.285156 9.523438 -15.066406 9.015625 -14.796875 C 8.515625 -14.523438 8.003906 -14.226562 7.484375 -13.90625 C 6.960938 -13.59375 6.492188 -13.285156 6.078125 -12.984375 C 5.671875 -12.691406 5.335938 -12.425781 5.078125 -12.1875 C 4.816406 -11.957031 4.6875 -11.789062 4.6875 -11.6875 C 4.6875 -11.625 4.75 -11.59375 4.875 -11.59375 L 5.515625 -11.59375 C 5.910156 -11.59375 6.421875 -11.570312 7.046875 -11.53125 C 7.671875 -11.488281 8.328125 -11.40625 9.015625 -11.28125 C 9.703125 -11.15625 10.394531 -10.976562 11.09375 -10.75 C 11.789062 -10.519531 12.414062 -10.210938 12.96875 -9.828125 C 13.519531 -9.441406 13.972656 -8.976562 14.328125 -8.4375 C 14.679688 -7.894531 14.859375 -7.25 14.859375 -6.5 C 14.859375 -6.113281 14.796875 -5.703125 14.671875 -5.265625 C 14.546875 -4.835938 14.320312 -4.398438 14 -3.953125 C 13.6875 -3.503906 13.257812 -3.046875 12.71875 -2.578125 C 12.175781 -2.117188 11.484375 -1.664062 10.640625 -1.21875 C 9.378906 -0.539062 8.203125 -0.0390625 7.109375 0.28125 C 6.015625 0.601562 5.023438 0.765625 4.140625 0.765625 C 2.992188 0.765625 2.085938 0.507812 1.421875 0 C 0.765625 -0.507812 0.4375 -1.242188 0.4375 -2.203125 C 0.4375 -2.910156 0.570312 -3.515625 0.84375 -4.015625 C 1.113281 -4.515625 1.429688 -4.925781 1.796875 -5.25 C 2.171875 -5.582031 2.539062 -5.828125 2.90625 -5.984375 C 3.269531 -6.140625 3.550781 -6.222656 3.75 -6.234375 C 3.832031 -6.234375 3.90625 -6.238281 3.96875 -6.25 C 4.039062 -6.269531 4.113281 -6.28125 4.1875 -6.28125 C 4.320312 -6.28125 4.390625 -6.203125 4.390625 -6.046875 L 4.390625 -5.8125 C 4.390625 -5.726562 4.410156 -5.648438 4.453125 -5.578125 C 4.492188 -5.515625 4.515625 -5.445312 4.515625 -5.375 C 4.515625 -5.289062 4.40625 -5.160156 4.1875 -4.984375 C 3.976562 -4.804688 3.75 -4.597656 3.5 -4.359375 C 3.25 -4.128906 3.015625 -3.878906 2.796875 -3.609375 C 2.585938 -3.347656 2.484375 -3.09375 2.484375 -2.84375 C 2.484375 -2.550781 2.722656 -2.40625 3.203125 -2.40625 C 3.785156 -2.40625 4.40625 -2.515625 5.0625 -2.734375 C 5.71875 -2.960938 6.351562 -3.253906 6.96875 -3.609375 C 7.59375 -3.960938 8.1875 -4.363281 8.75 -4.8125 C 9.320312 -5.257812 9.820312 -5.695312 10.25 -6.125 C 10.675781 -6.550781 11.015625 -6.953125 11.265625 -7.328125 C 11.515625 -7.703125 11.640625 -8 11.640625 -8.21875 C 11.640625 -8.488281 11.488281 -8.703125 11.1875 -8.859375 C 10.882812 -9.023438 10.472656 -9.15625 9.953125 -9.25 C 9.429688 -9.351562 8.820312 -9.421875 8.125 -9.453125 C 7.4375 -9.492188 6.710938 -9.515625 5.953125 -9.515625 C 5.160156 -9.515625 4.503906 -9.476562 3.984375 -9.40625 C 3.460938 -9.332031 3.140625 -9.296875 3.015625 -9.296875 C 2.929688 -9.296875 2.789062 -9.304688 2.59375 -9.328125 C 2.394531 -9.359375 2.195312 -9.425781 2 -9.53125 C 1.800781 -9.644531 1.625 -9.8125 1.46875 -10.03125 C 1.320312 -10.25 1.25 -10.566406 1.25 -10.984375 C 1.25 -11.253906 1.3125 -11.566406 1.4375 -11.921875 C 1.5625 -12.273438 1.78125 -12.65625 2.09375 -13.0625 C 2.414062 -13.46875 2.851562 -13.90625 3.40625 -14.375 C 3.957031 -14.84375 4.660156 -15.332031 5.515625 -15.84375 C 6.410156 -16.382812 7.25 -16.828125 8.03125 -17.171875 C 8.820312 -17.523438 9.535156 -17.796875 10.171875 -17.984375 C 10.804688 -18.171875 11.363281 -18.296875 11.84375 -18.359375 C 12.332031 -18.429688 12.71875 -18.46875 13 -18.46875 C 13.664062 -18.46875 14.160156 -18.382812 14.484375 -18.21875 C 14.804688 -18.050781 15.046875 -17.753906 15.203125 -17.328125 Z M 15.203125 -17.328125 "/></g></g></g><g fill="#f52d32" fill-opacity="1"><g transform="translate(35.031873, 43.562363)"><g><path d="M 7.1875 -28.765625 C 7.195312 -28.472656 7.179688 -28.144531 7.140625 -27.78125 C 7.109375 -27.425781 7.050781 -27.078125 6.96875 -26.734375 C 6.894531 -26.398438 6.785156 -26.097656 6.640625 -25.828125 C 6.503906 -25.566406 6.34375 -25.382812 6.15625 -25.28125 C 5.664062 -25.03125 5.238281 -24.90625 4.875 -24.90625 C 4.582031 -24.90625 4.328125 -24.972656 4.109375 -25.109375 C 3.898438 -25.253906 3.691406 -25.414062 3.484375 -25.59375 C 3.191406 -25.820312 2.945312 -26.128906 2.75 -26.515625 C 2.550781 -26.898438 2.453125 -27.269531 2.453125 -27.625 C 2.453125 -27.894531 2.5 -28.234375 2.59375 -28.640625 C 2.6875 -29.046875 2.804688 -29.4375 2.953125 -29.8125 C 3.097656 -30.195312 3.253906 -30.546875 3.421875 -30.859375 C 3.597656 -31.179688 3.765625 -31.398438 3.921875 -31.515625 C 4.171875 -31.722656 4.398438 -31.835938 4.609375 -31.859375 C 4.828125 -31.878906 5.003906 -31.867188 5.140625 -31.828125 C 5.460938 -31.753906 5.75 -31.660156 6 -31.546875 C 6.25 -31.441406 6.457031 -31.273438 6.625 -31.046875 C 6.789062 -30.816406 6.914062 -30.515625 7 -30.140625 C 7.09375 -29.773438 7.15625 -29.316406 7.1875 -28.765625 Z M 5.375 -18.90625 C 5.445312 -18.832031 5.5 -18.585938 5.53125 -18.171875 C 5.570312 -17.765625 5.59375 -17.234375 5.59375 -16.578125 C 5.59375 -16.128906 5.582031 -15.648438 5.5625 -15.140625 C 5.550781 -14.628906 5.535156 -14.097656 5.515625 -13.546875 C 5.492188 -13.003906 5.46875 -12.457031 5.4375 -11.90625 C 5.414062 -11.363281 5.394531 -10.84375 5.375 -10.34375 C 5.332031 -9.519531 5.304688 -8.757812 5.296875 -8.0625 C 5.296875 -7.363281 5.296875 -6.691406 5.296875 -6.046875 C 5.296875 -5.191406 5.300781 -4.410156 5.3125 -3.703125 C 5.320312 -2.992188 5.328125 -2.40625 5.328125 -1.9375 C 5.328125 -1.425781 5.304688 -1.035156 5.265625 -0.765625 C 5.234375 -0.492188 5.160156 -0.34375 5.046875 -0.3125 C 4.910156 -0.28125 4.796875 -0.21875 4.703125 -0.125 C 4.617188 -0.03125 4.539062 0.0546875 4.46875 0.140625 C 4.394531 0.234375 4.3125 0.3125 4.21875 0.375 C 4.125 0.445312 4.007812 0.46875 3.875 0.4375 C 3.800781 0.425781 3.675781 0.359375 3.5 0.234375 C 3.320312 0.117188 3.132812 -0.0195312 2.9375 -0.1875 C 2.738281 -0.351562 2.550781 -0.546875 2.375 -0.765625 C 2.195312 -0.992188 2.082031 -1.222656 2.03125 -1.453125 C 2 -1.566406 1.972656 -1.800781 1.953125 -2.15625 C 1.929688 -2.507812 1.910156 -2.9375 1.890625 -3.4375 C 1.878906 -3.9375 1.863281 -4.488281 1.84375 -5.09375 C 1.832031 -5.707031 1.820312 -6.328125 1.8125 -6.953125 C 1.8125 -7.578125 1.8125 -8.191406 1.8125 -8.796875 C 1.8125 -9.398438 1.8125 -9.941406 1.8125 -10.421875 C 1.8125 -11.171875 1.835938 -11.9375 1.890625 -12.71875 C 1.941406 -13.5 2 -14.222656 2.0625 -14.890625 C 2.125 -15.566406 2.1875 -16.160156 2.25 -16.671875 C 2.320312 -17.179688 2.375 -17.539062 2.40625 -17.75 C 2.457031 -18.09375 2.515625 -18.363281 2.578125 -18.5625 C 2.648438 -18.769531 2.726562 -18.914062 2.8125 -19 C 2.894531 -19.082031 2.972656 -19.132812 3.046875 -19.15625 C 3.128906 -19.1875 3.21875 -19.207031 3.3125 -19.21875 C 3.488281 -19.25 3.6875 -19.253906 3.90625 -19.234375 C 4.132812 -19.222656 4.351562 -19.203125 4.5625 -19.171875 C 4.769531 -19.140625 4.945312 -19.097656 5.09375 -19.046875 C 5.25 -19.003906 5.34375 -18.957031 5.375 -18.90625 Z M 5.375 -18.90625 "/></g></g></g><g fill="#f52d32" fill-opacity="1"><g transform="translate(38.953495, 43.562363)"><g><path d="M 13.09375 -14.34375 C 12.832031 -14.34375 12.457031 -14.320312 11.96875 -14.28125 C 11.476562 -14.238281 10.9375 -14.179688 10.34375 -14.109375 C 9.75 -14.046875 9.128906 -13.96875 8.484375 -13.875 C 7.847656 -13.78125 7.242188 -13.679688 6.671875 -13.578125 C 6.648438 -12.785156 6.625 -11.945312 6.59375 -11.0625 C 6.570312 -10.1875 6.550781 -9.296875 6.53125 -8.390625 C 6.507812 -7.492188 6.488281 -6.625 6.46875 -5.78125 C 6.445312 -4.9375 6.425781 -4.15625 6.40625 -3.4375 C 6.394531 -2.71875 6.390625 -2.085938 6.390625 -1.546875 C 6.390625 -1.015625 6.394531 -0.617188 6.40625 -0.359375 C 6.4375 0.285156 6.421875 0.726562 6.359375 0.96875 C 6.304688 1.207031 6.226562 1.34375 6.125 1.375 C 6.019531 1.414062 5.910156 1.390625 5.796875 1.296875 C 5.679688 1.210938 5.585938 1.15625 5.515625 1.125 C 5.441406 1.113281 5.382812 1.148438 5.34375 1.234375 C 5.3125 1.316406 5.28125 1.414062 5.25 1.53125 C 5.21875 1.644531 5.175781 1.75 5.125 1.84375 C 5.082031 1.9375 5.015625 1.96875 4.921875 1.9375 C 4.742188 1.894531 4.519531 1.765625 4.25 1.546875 C 3.988281 1.335938 3.773438 1.078125 3.609375 0.765625 C 3.523438 0.609375 3.457031 0.429688 3.40625 0.234375 C 3.363281 0.0351562 3.304688 -0.171875 3.234375 -0.390625 C 3.210938 -0.535156 3.1875 -0.75 3.15625 -1.03125 C 3.132812 -1.3125 3.113281 -1.640625 3.09375 -2.015625 C 3.082031 -2.398438 3.070312 -2.828125 3.0625 -3.296875 C 3.0625 -3.773438 3.0625 -4.269531 3.0625 -4.78125 C 3.0625 -5.46875 3.0625 -6.175781 3.0625 -6.90625 C 3.070312 -7.644531 3.082031 -8.367188 3.09375 -9.078125 C 3.113281 -9.796875 3.128906 -10.476562 3.140625 -11.125 C 3.160156 -11.769531 3.179688 -12.351562 3.203125 -12.875 C 2.898438 -12.800781 2.546875 -12.707031 2.140625 -12.59375 C 1.742188 -12.488281 1.273438 -12.351562 0.734375 -12.1875 C 0.523438 -12.113281 0.375 -12.128906 0.28125 -12.234375 C 0.195312 -12.335938 0.222656 -12.535156 0.359375 -12.828125 C 0.398438 -12.898438 0.390625 -12.957031 0.328125 -13 C 0.273438 -13.050781 0.207031 -13.09375 0.125 -13.125 C 0.0390625 -13.164062 -0.0351562 -13.207031 -0.109375 -13.25 C -0.179688 -13.289062 -0.21875 -13.351562 -0.21875 -13.4375 C -0.21875 -13.53125 -0.207031 -13.632812 -0.1875 -13.75 C -0.164062 -13.875 -0.117188 -13.957031 -0.046875 -14 C 0.117188 -14.082031 0.453125 -14.265625 0.953125 -14.546875 C 1.453125 -14.835938 2.1875 -15.128906 3.15625 -15.421875 C 3.132812 -17.160156 3.234375 -18.703125 3.453125 -20.046875 C 3.679688 -21.398438 3.984375 -22.585938 4.359375 -23.609375 C 4.734375 -24.640625 5.171875 -25.515625 5.671875 -26.234375 C 6.179688 -26.953125 6.710938 -27.546875 7.265625 -28.015625 C 7.816406 -28.484375 8.375 -28.84375 8.9375 -29.09375 C 9.5 -29.34375 10.039062 -29.507812 10.5625 -29.59375 C 11.257812 -29.726562 11.882812 -29.660156 12.4375 -29.390625 C 12.988281 -29.128906 13.445312 -28.757812 13.8125 -28.28125 C 14.1875 -27.8125 14.46875 -27.273438 14.65625 -26.671875 C 14.84375 -26.078125 14.9375 -25.507812 14.9375 -24.96875 C 14.9375 -24.3125 14.898438 -23.726562 14.828125 -23.21875 C 14.753906 -22.707031 14.671875 -22.269531 14.578125 -21.90625 C 14.484375 -21.550781 14.378906 -21.257812 14.265625 -21.03125 C 14.160156 -20.8125 14.070312 -20.648438 14 -20.546875 C 13.863281 -20.296875 13.734375 -20.097656 13.609375 -19.953125 C 13.484375 -19.804688 13.382812 -19.773438 13.3125 -19.859375 C 13.226562 -19.929688 13.132812 -19.984375 13.03125 -20.015625 C 12.925781 -20.054688 12.820312 -20.097656 12.71875 -20.140625 C 12.625 -20.191406 12.546875 -20.242188 12.484375 -20.296875 C 12.429688 -20.359375 12.40625 -20.457031 12.40625 -20.59375 C 12.40625 -20.644531 12.378906 -20.675781 12.328125 -20.6875 C 12.273438 -20.707031 12.222656 -20.726562 12.171875 -20.75 C 12.117188 -20.769531 12.070312 -20.800781 12.03125 -20.84375 C 11.988281 -20.894531 11.984375 -20.972656 12.015625 -21.078125 C 12.191406 -21.921875 12.28125 -22.75 12.28125 -23.5625 C 12.28125 -24.21875 12.21875 -24.820312 12.09375 -25.375 C 11.96875 -25.925781 11.78125 -26.394531 11.53125 -26.78125 C 11.289062 -27.175781 10.988281 -27.457031 10.625 -27.625 C 10.269531 -27.789062 9.859375 -27.816406 9.390625 -27.703125 C 9.066406 -27.628906 8.753906 -27.328125 8.453125 -26.796875 C 8.148438 -26.273438 7.878906 -25.523438 7.640625 -24.546875 C 7.398438 -23.578125 7.195312 -22.398438 7.03125 -21.015625 C 6.863281 -19.628906 6.757812 -18.039062 6.71875 -16.25 C 7.9375 -16.476562 9.429688 -16.660156 11.203125 -16.796875 C 11.378906 -16.804688 11.515625 -16.789062 11.609375 -16.75 C 11.710938 -16.71875 11.804688 -16.664062 11.890625 -16.59375 C 11.984375 -16.519531 12.078125 -16.425781 12.171875 -16.3125 C 12.273438 -16.195312 12.398438 -16.054688 12.546875 -15.890625 C 12.691406 -15.734375 12.835938 -15.5625 12.984375 -15.375 C 13.128906 -15.1875 13.238281 -15.015625 13.3125 -14.859375 C 13.382812 -14.710938 13.410156 -14.585938 13.390625 -14.484375 C 13.367188 -14.378906 13.269531 -14.332031 13.09375 -14.34375 Z M 13.09375 -14.34375 "/></g></g></g><g fill="#f52d32" fill-opacity="1"><g transform="translate(50.808785, 43.562363)"><g><path d="M 5.953125 -29.5625 C 5.953125 -29.25 5.941406 -28.941406 5.921875 -28.640625 C 5.898438 -28.335938 5.859375 -28.03125 5.796875 -27.71875 C 5.734375 -27.40625 5.65625 -27.070312 5.5625 -26.71875 C 5.476562 -26.363281 5.375 -25.972656 5.25 -25.546875 C 5.082031 -25.035156 4.820312 -24.578125 4.46875 -24.171875 C 4.125 -23.765625 3.75 -23.414062 3.34375 -23.125 C 3.25 -23.050781 3.117188 -23 2.953125 -22.96875 C 2.796875 -22.9375 2.628906 -22.921875 2.453125 -22.921875 C 2.273438 -22.921875 2.097656 -22.9375 1.921875 -22.96875 C 1.753906 -23 1.597656 -23.039062 1.453125 -23.09375 C 1.316406 -23.144531 1.207031 -23.207031 1.125 -23.28125 C 1.050781 -23.351562 1.019531 -23.429688 1.03125 -23.515625 C 1.03125 -23.546875 1.046875 -23.570312 1.078125 -23.59375 C 1.109375 -23.613281 1.140625 -23.644531 1.171875 -23.6875 C 1.710938 -24.113281 2.125 -24.660156 2.40625 -25.328125 C 2.695312 -26.003906 2.882812 -26.664062 2.96875 -27.3125 C 2.195312 -27.78125 1.8125 -28.28125 1.8125 -28.8125 C 1.8125 -29 1.851562 -29.21875 1.9375 -29.46875 C 2.03125 -29.726562 2.140625 -29.988281 2.265625 -30.25 C 2.390625 -30.507812 2.523438 -30.742188 2.671875 -30.953125 C 2.828125 -31.171875 2.972656 -31.320312 3.109375 -31.40625 C 3.335938 -31.519531 3.515625 -31.582031 3.640625 -31.59375 C 3.765625 -31.601562 3.890625 -31.609375 4.015625 -31.609375 C 4.628906 -31.609375 5.101562 -31.453125 5.4375 -31.140625 C 5.78125 -30.835938 5.953125 -30.3125 5.953125 -29.5625 Z M 5.953125 -29.5625 "/></g></g></g><g fill="#f52d32" fill-opacity="1"><g transform="translate(53.298075, 43.562363)"><g><path d="M 15.203125 -17.328125 C 15.253906 -17.234375 15.28125 -17.140625 15.28125 -17.046875 C 15.289062 -16.960938 15.296875 -16.863281 15.296875 -16.75 C 15.296875 -16.28125 15.046875 -15.785156 14.546875 -15.265625 C 14.054688 -14.753906 13.285156 -14.285156 12.234375 -13.859375 C 12.015625 -13.773438 11.816406 -13.734375 11.640625 -13.734375 C 11.421875 -13.734375 11.234375 -13.796875 11.078125 -13.921875 C 10.921875 -14.046875 10.84375 -14.175781 10.84375 -14.3125 C 10.84375 -14.394531 10.894531 -14.492188 11 -14.609375 C 11.113281 -14.734375 11.234375 -14.851562 11.359375 -14.96875 C 11.484375 -15.082031 11.597656 -15.191406 11.703125 -15.296875 C 11.816406 -15.398438 11.875 -15.484375 11.875 -15.546875 C 11.875 -15.660156 11.78125 -15.71875 11.59375 -15.71875 C 11.300781 -15.71875 10.925781 -15.628906 10.46875 -15.453125 C 10.007812 -15.285156 9.523438 -15.066406 9.015625 -14.796875 C 8.515625 -14.523438 8.003906 -14.226562 7.484375 -13.90625 C 6.960938 -13.59375 6.492188 -13.285156 6.078125 -12.984375 C 5.671875 -12.691406 5.335938 -12.425781 5.078125 -12.1875 C 4.816406 -11.957031 4.6875 -11.789062 4.6875 -11.6875 C 4.6875 -11.625 4.75 -11.59375 4.875 -11.59375 L 5.515625 -11.59375 C 5.910156 -11.59375 6.421875 -11.570312 7.046875 -11.53125 C 7.671875 -11.488281 8.328125 -11.40625 9.015625 -11.28125 C 9.703125 -11.15625 10.394531 -10.976562 11.09375 -10.75 C 11.789062 -10.519531 12.414062 -10.210938 12.96875 -9.828125 C 13.519531 -9.441406 13.972656 -8.976562 14.328125 -8.4375 C 14.679688 -7.894531 14.859375 -7.25 14.859375 -6.5 C 14.859375 -6.113281 14.796875 -5.703125 14.671875 -5.265625 C 14.546875 -4.835938 14.320312 -4.398438 14 -3.953125 C 13.6875 -3.503906 13.257812 -3.046875 12.71875 -2.578125 C 12.175781 -2.117188 11.484375 -1.664062 10.640625 -1.21875 C 9.378906 -0.539062 8.203125 -0.0390625 7.109375 0.28125 C 6.015625 0.601562 5.023438 0.765625 4.140625 0.765625 C 2.992188 0.765625 2.085938 0.507812 1.421875 0 C 0.765625 -0.507812 0.4375 -1.242188 0.4375 -2.203125 C 0.4375 -2.910156 0.570312 -3.515625 0.84375 -4.015625 C 1.113281 -4.515625 1.429688 -4.925781 1.796875 -5.25 C 2.171875 -5.582031 2.539062 -5.828125 2.90625 -5.984375 C 3.269531 -6.140625 3.550781 -6.222656 3.75 -6.234375 C 3.832031 -6.234375 3.90625 -6.238281 3.96875 -6.25 C 4.039062 -6.269531 4.113281 -6.28125 4.1875 -6.28125 C 4.320312 -6.28125 4.390625 -6.203125 4.390625 -6.046875 L 4.390625 -5.8125 C 4.390625 -5.726562 4.410156 -5.648438 4.453125 -5.578125 C 4.492188 -5.515625 4.515625 -5.445312 4.515625 -5.375 C 4.515625 -5.289062 4.40625 -5.160156 4.1875 -4.984375 C 3.976562 -4.804688 3.75 -4.597656 3.5 -4.359375 C 3.25 -4.128906 3.015625 -3.878906 2.796875 -3.609375 C 2.585938 -3.347656 2.484375 -3.09375 2.484375 -2.84375 C 2.484375 -2.550781 2.722656 -2.40625 3.203125 -2.40625 C 3.785156 -2.40625 4.40625 -2.515625 5.0625 -2.734375 C 5.71875 -2.960938 6.351562 -3.253906 6.96875 -3.609375 C 7.59375 -3.960938 8.1875 -4.363281 8.75 -4.8125 C 9.320312 -5.257812 9.820312 -5.695312 10.25 -6.125 C 10.675781 -6.550781 11.015625 -6.953125 11.265625 -7.328125 C 11.515625 -7.703125 11.640625 -8 11.640625 -8.21875 C 11.640625 -8.488281 11.488281 -8.703125 11.1875 -8.859375 C 10.882812 -9.023438 10.472656 -9.15625 9.953125 -9.25 C 9.429688 -9.351562 8.820312 -9.421875 8.125 -9.453125 C 7.4375 -9.492188 6.710938 -9.515625 5.953125 -9.515625 C 5.160156 -9.515625 4.503906 -9.476562 3.984375 -9.40625 C 3.460938 -9.332031 3.140625 -9.296875 3.015625 -9.296875 C 2.929688 -9.296875 2.789062 -9.304688 2.59375 -9.328125 C 2.394531 -9.359375 2.195312 -9.425781 2 -9.53125 C 1.800781 -9.644531 1.625 -9.8125 1.46875 -10.03125 C 1.320312 -10.25 1.25 -10.566406 1.25 -10.984375 C 1.25 -11.253906 1.3125 -11.566406 1.4375 -11.921875 C 1.5625 -12.273438 1.78125 -12.65625 2.09375 -13.0625 C 2.414062 -13.46875 2.851562 -13.90625 3.40625 -14.375 C 3.957031 -14.84375 4.660156 -15.332031 5.515625 -15.84375 C 6.410156 -16.382812 7.25 -16.828125 8.03125 -17.171875 C 8.820312 -17.523438 9.535156 -17.796875 10.171875 -17.984375 C 10.804688 -18.171875 11.363281 -18.296875 11.84375 -18.359375 C 12.332031 -18.429688 12.71875 -18.46875 13 -18.46875 C 13.664062 -18.46875 14.160156 -18.382812 14.484375 -18.21875 C 14.804688 -18.050781 15.046875 -17.753906 15.203125 -17.328125 Z M 15.203125 -17.328125 "/></g></g></g></g></g><g transform="matrix(1, 0, 0, 1, 236, 162)"><g clip-path="url(#79e6924f19)"><g fill="#ffffff" fill-opacity="1"><g transform="translate(0.942676, 54.533444)"><g><path d="M 3.59375 -49.34375 L 21.59375 -49.34375 C 26.613281 -49.34375 30.675781 -48.046875 33.78125 -45.453125 C 36.894531 -42.859375 38.453125 -39.085938 38.453125 -34.140625 C 38.453125 -29.203125 36.878906 -25.328125 33.734375 -22.515625 C 30.585938 -19.703125 26.539062 -18.296875 21.59375 -18.296875 L 14.828125 -18.296875 L 14.828125 0 L 3.59375 0 Z M 14.828125 -27.28125 L 18 -27.28125 C 20.507812 -27.28125 22.570312 -27.785156 24.1875 -28.796875 C 25.800781 -29.816406 26.609375 -31.484375 26.609375 -33.796875 C 26.609375 -36.148438 25.800781 -37.832031 24.1875 -38.84375 C 22.570312 -39.863281 20.507812 -40.375 18 -40.375 L 14.828125 -40.375 Z M 14.828125 -27.28125 "/></g></g></g><g fill="#ffffff" fill-opacity="1"><g transform="translate(33.296124, 54.533444)"><g><path d="M 6.484375 -3.640625 C 3.078125 -6.671875 1.375 -10.5625 1.375 -15.3125 C 1.375 -20.0625 3.144531 -23.957031 6.6875 -27 C 10.238281 -30.050781 14.628906 -31.578125 19.859375 -31.578125 C 25.003906 -31.578125 29.335938 -30.039062 32.859375 -26.96875 C 36.390625 -23.90625 38.15625 -20.019531 38.15625 -15.3125 C 38.15625 -10.601562 36.429688 -6.722656 32.984375 -3.671875 C 29.535156 -0.628906 25.160156 0.890625 19.859375 0.890625 C 14.359375 0.890625 9.898438 -0.617188 6.484375 -3.640625 Z M 14.6875 -20.515625 C 13.3125 -19.160156 12.625 -17.425781 12.625 -15.3125 C 12.625 -13.195312 13.28125 -11.472656 14.59375 -10.140625 C 15.90625 -8.804688 17.640625 -8.140625 19.796875 -8.140625 C 21.867188 -8.140625 23.570312 -8.816406 24.90625 -10.171875 C 26.25 -11.523438 26.921875 -13.238281 26.921875 -15.3125 C 26.921875 -17.425781 26.226562 -19.160156 24.84375 -20.515625 C 23.46875 -21.867188 21.785156 -22.546875 19.796875 -22.546875 C 17.765625 -22.546875 16.0625 -21.867188 14.6875 -20.515625 Z M 14.6875 -20.515625 "/></g></g></g><g fill="#ffffff" fill-opacity="1"><g transform="translate(67.922222, 54.533444)"><g><path d="M 5.390625 -30.6875 L 5.390625 -42.109375 L 15.96875 -42.109375 L 15.96875 -30.6875 L 22.4375 -30.6875 L 22.4375 -22.609375 L 15.96875 -22.609375 L 15.96875 -12.859375 C 15.96875 -10.023438 16.765625 -8.609375 18.359375 -8.609375 C 18.753906 -8.609375 19.171875 -8.6875 19.609375 -8.84375 C 20.054688 -9.007812 20.398438 -9.171875 20.640625 -9.328125 L 21 -9.5625 L 23.625 -1.015625 C 21.351562 0.253906 18.757812 0.890625 15.84375 0.890625 C 13.851562 0.890625 12.140625 0.539062 10.703125 -0.15625 C 9.265625 -0.851562 8.175781 -1.785156 7.4375 -2.953125 C 6.707031 -4.128906 6.179688 -5.363281 5.859375 -6.65625 C 5.546875 -7.957031 5.390625 -9.347656 5.390625 -10.828125 L 5.390625 -22.609375 L 0.953125 -22.609375 L 0.953125 -30.6875 Z M 5.390625 -30.6875 "/></g></g></g></g></g><g clip-path="url(#cacbae5ae2)"><g clip-path="url(#4e37873e27)"><g transform="matrix(1, 0, 0, 1, 44, 214)"><g clip-path="url(#b27673f172)"><g clip-path="url(#d1e565ddc8)"><g clip-path="url(#4ebb686534)"><path fill="#f52d32" d="M 0.0898438 0.113281 L 156.316406 0.113281 L 156.316406 15.15625 L 0.0898438 15.15625 Z M 0.0898438 0.113281 " fill-opacity="1" fill-rule="nonzero"/></g></g></g></g></g></g><g transform="matrix(1, 0, 0, 1, 46, 215)"><g clip-path="url(#d4e24669b8)"><g fill="#ffffff" fill-opacity="1"><g transform="translate(0.818695, 8.74991)"><g><path d="M 3.140625 -1.03125 C 3.296875 -1.03125 3.460938 -1.050781 3.640625 -1.09375 C 3.816406 -1.144531 3.972656 -1.226562 4.109375 -1.34375 C 4.242188 -1.457031 4.3125 -1.609375 4.3125 -1.796875 C 4.3125 -1.984375 4.238281 -2.128906 4.09375 -2.234375 C 3.957031 -2.347656 3.773438 -2.4375 3.546875 -2.5 C 3.328125 -2.570312 3.082031 -2.640625 2.8125 -2.703125 C 2.539062 -2.765625 2.269531 -2.835938 2 -2.921875 C 1.726562 -3.015625 1.476562 -3.128906 1.25 -3.265625 C 1.03125 -3.410156 0.847656 -3.597656 0.703125 -3.828125 C 0.566406 -4.054688 0.5 -4.34375 0.5 -4.6875 C 0.5 -5.03125 0.570312 -5.328125 0.71875 -5.578125 C 0.863281 -5.828125 1.050781 -6.03125 1.28125 -6.1875 C 1.519531 -6.351562 1.785156 -6.476562 2.078125 -6.5625 C 2.367188 -6.644531 2.664062 -6.6875 2.96875 -6.6875 C 3.414062 -6.6875 3.835938 -6.613281 4.234375 -6.46875 C 4.628906 -6.332031 4.945312 -6.109375 5.1875 -5.796875 C 5.4375 -5.492188 5.570312 -5.085938 5.59375 -4.578125 L 4.1875 -4.578125 C 4.144531 -4.921875 4.023438 -5.160156 3.828125 -5.296875 C 3.628906 -5.429688 3.347656 -5.5 2.984375 -5.5 C 2.847656 -5.5 2.703125 -5.472656 2.546875 -5.421875 C 2.398438 -5.378906 2.269531 -5.304688 2.15625 -5.203125 C 2.050781 -5.109375 2 -4.976562 2 -4.8125 C 2 -4.632812 2.066406 -4.5 2.203125 -4.40625 C 2.347656 -4.3125 2.53125 -4.226562 2.75 -4.15625 C 2.976562 -4.09375 3.226562 -4.03125 3.5 -3.96875 C 3.769531 -3.914062 4.039062 -3.847656 4.3125 -3.765625 C 4.582031 -3.679688 4.828125 -3.566406 5.046875 -3.421875 C 5.273438 -3.273438 5.457031 -3.085938 5.59375 -2.859375 C 5.738281 -2.628906 5.8125 -2.332031 5.8125 -1.96875 C 5.8125 -1.582031 5.734375 -1.253906 5.578125 -0.984375 C 5.421875 -0.710938 5.210938 -0.492188 4.953125 -0.328125 C 4.691406 -0.160156 4.394531 -0.0390625 4.0625 0.03125 C 3.738281 0.113281 3.410156 0.15625 3.078125 0.15625 C 2.597656 0.15625 2.144531 0.0703125 1.71875 -0.09375 C 1.289062 -0.257812 0.945312 -0.507812 0.6875 -0.84375 C 0.425781 -1.1875 0.296875 -1.628906 0.296875 -2.171875 L 1.765625 -2.171875 C 1.785156 -1.773438 1.929688 -1.484375 2.203125 -1.296875 C 2.472656 -1.117188 2.785156 -1.03125 3.140625 -1.03125 Z M 3.140625 -1.03125 "/></g></g></g><g fill="#ffffff" fill-opacity="1"><g transform="translate(6.918037, 8.74991)"><g><path d="M 2.78125 -1 C 3.039062 -1 3.238281 -1.054688 3.375 -1.171875 C 3.519531 -1.285156 3.617188 -1.425781 3.671875 -1.59375 C 3.734375 -1.757812 3.765625 -1.9375 3.765625 -2.125 C 3.765625 -2.300781 3.734375 -2.472656 3.671875 -2.640625 C 3.609375 -2.804688 3.503906 -2.941406 3.359375 -3.046875 C 3.222656 -3.160156 3.03125 -3.21875 2.78125 -3.21875 C 2.53125 -3.21875 2.332031 -3.160156 2.1875 -3.046875 C 2.039062 -2.941406 1.9375 -2.804688 1.875 -2.640625 C 1.8125 -2.472656 1.78125 -2.300781 1.78125 -2.125 C 1.78125 -1.9375 1.804688 -1.757812 1.859375 -1.59375 C 1.921875 -1.425781 2.023438 -1.285156 2.171875 -1.171875 C 2.316406 -1.054688 2.519531 -1 2.78125 -1 Z M 2.78125 -4.359375 C 3.226562 -4.359375 3.632812 -4.265625 4 -4.078125 C 4.363281 -3.890625 4.65625 -3.628906 4.875 -3.296875 C 5.101562 -2.960938 5.21875 -2.570312 5.21875 -2.125 C 5.21875 -1.675781 5.109375 -1.285156 4.890625 -0.953125 C 4.671875 -0.617188 4.375 -0.359375 4 -0.171875 C 3.632812 0.00390625 3.226562 0.09375 2.78125 0.09375 C 2.332031 0.09375 1.921875 0.00390625 1.546875 -0.171875 C 1.171875 -0.359375 0.875 -0.617188 0.65625 -0.953125 C 0.445312 -1.285156 0.34375 -1.675781 0.34375 -2.125 C 0.34375 -2.570312 0.453125 -2.960938 0.671875 -3.296875 C 0.890625 -3.628906 1.179688 -3.890625 1.546875 -4.078125 C 1.921875 -4.265625 2.332031 -4.359375 2.78125 -4.359375 Z M 2.78125 -4.359375 "/></g></g></g><g fill="#ffffff" fill-opacity="1"><g transform="translate(12.46554, 8.74991)"><g><path d="M 0.484375 -1.84375 L 0.484375 -4.265625 L 1.9375 -4.265625 L 1.9375 -1.84375 C 1.9375 -1.59375 1.988281 -1.398438 2.09375 -1.265625 C 2.195312 -1.128906 2.363281 -1.0625 2.59375 -1.0625 C 2.8125 -1.0625 3 -1.164062 3.15625 -1.375 C 3.320312 -1.59375 3.40625 -1.84375 3.40625 -2.125 L 3.40625 -4.265625 L 4.859375 -4.265625 L 4.859375 0 L 3.40625 0 L 3.40625 -0.515625 C 3.257812 -0.335938 3.070312 -0.191406 2.84375 -0.078125 C 2.625 0.0351562 2.375 0.09375 2.09375 0.09375 C 1.519531 0.09375 1.109375 -0.0820312 0.859375 -0.4375 C 0.609375 -0.800781 0.484375 -1.269531 0.484375 -1.84375 Z M 0.484375 -1.84375 "/></g></g></g><g fill="#ffffff" fill-opacity="1"><g transform="translate(17.896867, 8.74991)"><g><path d="M 2.40625 -3.140625 L 2.40625 0 L 0.96875 0 L 0.96875 -3.140625 L 0.1875 -3.140625 L 0.1875 -4.265625 L 0.96875 -4.265625 L 0.96875 -5.90625 L 2.40625 -5.90625 L 2.40625 -4.265625 L 3.1875 -4.265625 L 3.1875 -3.140625 Z M 2.40625 -3.140625 "/></g></g></g><g fill="#ffffff" fill-opacity="1"><g transform="translate(21.275709, 8.74991)"><g><path d="M 4.953125 -2.421875 L 4.953125 0 L 3.5 0 L 3.5 -2.421875 C 3.5 -2.671875 3.445312 -2.863281 3.34375 -3 C 3.238281 -3.132812 3.070312 -3.203125 2.84375 -3.203125 C 2.625 -3.203125 2.429688 -3.09375 2.265625 -2.875 C 2.109375 -2.664062 2.03125 -2.414062 2.03125 -2.125 L 2.03125 0 L 0.578125 0 L 0.578125 -7.265625 L 2.03125 -7.265625 L 2.03125 -3.75 C 2.175781 -3.9375 2.359375 -4.085938 2.578125 -4.203125 C 2.804688 -4.316406 3.0625 -4.375 3.34375 -4.375 C 3.914062 -4.375 4.328125 -4.191406 4.578125 -3.828125 C 4.828125 -3.472656 4.953125 -3.003906 4.953125 -2.421875 Z M 4.953125 -2.421875 "/></g></g></g><g fill="#ffffff" fill-opacity="1"><g transform="translate(26.658626, 8.74991)"><g><path d="M 1.90625 -2.640625 L 3.8125 -2.640625 C 3.8125 -2.640625 3.800781 -2.679688 3.78125 -2.765625 C 3.769531 -2.847656 3.734375 -2.941406 3.671875 -3.046875 C 3.609375 -3.148438 3.507812 -3.238281 3.375 -3.3125 C 3.25 -3.394531 3.078125 -3.4375 2.859375 -3.4375 C 2.628906 -3.4375 2.445312 -3.394531 2.3125 -3.3125 C 2.1875 -3.238281 2.09375 -3.148438 2.03125 -3.046875 C 1.976562 -2.941406 1.941406 -2.847656 1.921875 -2.765625 C 1.910156 -2.679688 1.90625 -2.640625 1.90625 -2.640625 Z M 5.203125 -2.234375 C 5.203125 -2.179688 5.195312 -2.132812 5.1875 -2.09375 C 5.1875 -2.050781 5.1875 -2.003906 5.1875 -1.953125 L 1.875 -1.953125 C 1.875 -1.796875 1.910156 -1.632812 1.984375 -1.46875 C 2.066406 -1.3125 2.175781 -1.179688 2.3125 -1.078125 C 2.445312 -0.984375 2.609375 -0.9375 2.796875 -0.9375 C 3.054688 -0.9375 3.257812 -1.003906 3.40625 -1.140625 C 3.550781 -1.285156 3.628906 -1.4375 3.640625 -1.59375 L 5.125 -1.59375 C 5 -1.03125 4.726562 -0.609375 4.3125 -0.328125 C 3.894531 -0.046875 3.398438 0.09375 2.828125 0.09375 C 2.335938 0.09375 1.90625 0.00390625 1.53125 -0.171875 C 1.15625 -0.359375 0.863281 -0.617188 0.65625 -0.953125 C 0.445312 -1.285156 0.34375 -1.675781 0.34375 -2.125 C 0.34375 -2.570312 0.445312 -2.960938 0.65625 -3.296875 C 0.875 -3.640625 1.171875 -3.90625 1.546875 -4.09375 C 1.921875 -4.28125 2.347656 -4.375 2.828125 -4.375 C 3.265625 -4.375 3.660156 -4.285156 4.015625 -4.109375 C 4.367188 -3.941406 4.65625 -3.703125 4.875 -3.390625 C 5.09375 -3.078125 5.203125 -2.691406 5.203125 -2.234375 Z M 5.203125 -2.234375 "/></g></g></g><g fill="#ffffff" fill-opacity="1"><g transform="translate(32.196445, 8.74991)"><g><path d="M 3 -3.203125 C 2.8125 -3.203125 2.644531 -3.144531 2.5 -3.03125 C 2.351562 -2.925781 2.238281 -2.789062 2.15625 -2.625 C 2.070312 -2.46875 2.03125 -2.300781 2.03125 -2.125 L 2.03125 0 L 0.578125 0 L 0.578125 -4.265625 L 2.03125 -4.265625 L 2.03125 -3.75 C 2.144531 -3.90625 2.296875 -4.046875 2.484375 -4.171875 C 2.671875 -4.304688 2.894531 -4.375 3.15625 -4.375 C 3.21875 -4.375 3.289062 -4.363281 3.375 -4.34375 C 3.457031 -4.332031 3.53125 -4.304688 3.59375 -4.265625 L 3.59375 -2.953125 L 3.578125 -2.953125 C 3.503906 -3.046875 3.414062 -3.109375 3.3125 -3.140625 C 3.207031 -3.179688 3.101562 -3.203125 3 -3.203125 Z M 3 -3.203125 "/></g></g></g><g fill="#ffffff" fill-opacity="1"><g transform="translate(35.8851, 8.74991)"><g><path d="M 4.953125 -2.421875 L 4.953125 0 L 3.5 0 L 3.5 -2.421875 C 3.5 -2.671875 3.445312 -2.863281 3.34375 -3 C 3.238281 -3.132812 3.070312 -3.203125 2.84375 -3.203125 C 2.625 -3.203125 2.429688 -3.09375 2.265625 -2.875 C 2.109375 -2.664062 2.03125 -2.414062 2.03125 -2.125 L 2.03125 0 L 0.578125 0 L 0.578125 -4.265625 L 2.03125 -4.265625 L 2.03125 -3.75 C 2.175781 -3.9375 2.359375 -4.085938 2.578125 -4.203125 C 2.804688 -4.316406 3.0625 -4.375 3.34375 -4.375 C 3.914062 -4.375 4.328125 -4.191406 4.578125 -3.828125 C 4.828125 -3.472656 4.953125 -3.003906 4.953125 -2.421875 Z M 4.953125 -2.421875 "/></g></g></g></g></g><g transform="matrix(1, 0, 0, 1, 93, 215)"><g clip-path="url(#414a40bfec)"><g clip-path="url(#694ca9cd8b)"><g fill="#ffffff" fill-opacity="1"><g transform="translate(0.412866, 9.2653)"><g><path d="M 5.34375 -2.234375 L 6.953125 -2.234375 C 6.804688 -1.785156 6.570312 -1.382812 6.25 -1.03125 C 5.9375 -0.675781 5.5625 -0.398438 5.125 -0.203125 C 4.695312 -0.00390625 4.234375 0.09375 3.734375 0.09375 C 3.265625 0.09375 2.820312 0.0078125 2.40625 -0.15625 C 2 -0.332031 1.640625 -0.578125 1.328125 -0.890625 C 1.015625 -1.203125 0.769531 -1.5625 0.59375 -1.96875 C 0.425781 -2.382812 0.34375 -2.828125 0.34375 -3.296875 C 0.34375 -3.753906 0.425781 -4.1875 0.59375 -4.59375 C 0.769531 -5.007812 1.015625 -5.375 1.328125 -5.6875 C 1.640625 -6 2 -6.242188 2.40625 -6.421875 C 2.820312 -6.597656 3.265625 -6.6875 3.734375 -6.6875 C 4.234375 -6.6875 4.695312 -6.582031 5.125 -6.375 C 5.5625 -6.175781 5.9375 -5.90625 6.25 -5.5625 C 6.5625 -5.21875 6.796875 -4.820312 6.953125 -4.375 L 5.328125 -4.375 C 5.191406 -4.664062 4.972656 -4.894531 4.671875 -5.0625 C 4.378906 -5.238281 4.066406 -5.328125 3.734375 -5.328125 C 3.378906 -5.328125 3.054688 -5.234375 2.765625 -5.046875 C 2.472656 -4.867188 2.238281 -4.625 2.0625 -4.3125 C 1.894531 -4.007812 1.8125 -3.671875 1.8125 -3.296875 C 1.8125 -2.921875 1.894531 -2.578125 2.0625 -2.265625 C 2.238281 -1.960938 2.472656 -1.71875 2.765625 -1.53125 C 3.054688 -1.351562 3.378906 -1.265625 3.734375 -1.265625 C 4.078125 -1.265625 4.394531 -1.351562 4.6875 -1.53125 C 4.988281 -1.707031 5.207031 -1.941406 5.34375 -2.234375 Z M 5.34375 -2.234375 "/></g></g></g></g><g fill="#ffffff" fill-opacity="1"><g transform="translate(7.606223, 9.2653)"><g><path d="M 2.78125 -1 C 3.039062 -1 3.238281 -1.054688 3.375 -1.171875 C 3.519531 -1.285156 3.617188 -1.425781 3.671875 -1.59375 C 3.734375 -1.757812 3.765625 -1.9375 3.765625 -2.125 C 3.765625 -2.300781 3.734375 -2.472656 3.671875 -2.640625 C 3.609375 -2.804688 3.503906 -2.941406 3.359375 -3.046875 C 3.222656 -3.160156 3.03125 -3.21875 2.78125 -3.21875 C 2.53125 -3.21875 2.332031 -3.160156 2.1875 -3.046875 C 2.039062 -2.941406 1.9375 -2.804688 1.875 -2.640625 C 1.8125 -2.472656 1.78125 -2.300781 1.78125 -2.125 C 1.78125 -1.9375 1.804688 -1.757812 1.859375 -1.59375 C 1.921875 -1.425781 2.023438 -1.285156 2.171875 -1.171875 C 2.316406 -1.054688 2.519531 -1 2.78125 -1 Z M 2.78125 -4.359375 C 3.226562 -4.359375 3.632812 -4.265625 4 -4.078125 C 4.363281 -3.890625 4.65625 -3.628906 4.875 -3.296875 C 5.101562 -2.960938 5.21875 -2.570312 5.21875 -2.125 C 5.21875 -1.675781 5.109375 -1.285156 4.890625 -0.953125 C 4.671875 -0.617188 4.375 -0.359375 4 -0.171875 C 3.632812 0.00390625 3.226562 0.09375 2.78125 0.09375 C 2.332031 0.09375 1.921875 0.00390625 1.546875 -0.171875 C 1.171875 -0.359375 0.875 -0.617188 0.65625 -0.953125 C 0.445312 -1.285156 0.34375 -1.675781 0.34375 -2.125 C 0.34375 -2.570312 0.453125 -2.960938 0.671875 -3.296875 C 0.890625 -3.628906 1.179688 -3.890625 1.546875 -4.078125 C 1.921875 -4.265625 2.332031 -4.359375 2.78125 -4.359375 Z M 2.78125 -4.359375 "/></g></g></g><g fill="#ffffff" fill-opacity="1"><g transform="translate(13.153726, 9.2653)"><g><path d="M 4.890625 -2.171875 L 4.890625 0 L 3.4375 0 L 3.4375 -2.359375 C 3.4375 -2.566406 3.394531 -2.757812 3.3125 -2.9375 C 3.226562 -3.113281 3.0625 -3.203125 2.8125 -3.203125 C 2.65625 -3.203125 2.515625 -3.140625 2.390625 -3.015625 C 2.273438 -2.898438 2.1875 -2.757812 2.125 -2.59375 C 2.0625 -2.425781 2.03125 -2.269531 2.03125 -2.125 L 2.03125 0 L 0.578125 0 L 0.578125 -4.265625 L 2.03125 -4.265625 L 2.03125 -3.75 C 2.175781 -3.9375 2.347656 -4.085938 2.546875 -4.203125 C 2.753906 -4.316406 2.976562 -4.375 3.21875 -4.375 C 3.488281 -4.375 3.738281 -4.3125 3.96875 -4.1875 C 4.207031 -4.070312 4.398438 -3.890625 4.546875 -3.640625 C 4.753906 -3.910156 4.976562 -4.097656 5.21875 -4.203125 C 5.46875 -4.316406 5.765625 -4.375 6.109375 -4.375 C 6.484375 -4.375 6.789062 -4.28125 7.03125 -4.09375 C 7.269531 -3.914062 7.445312 -3.675781 7.5625 -3.375 C 7.6875 -3.070312 7.75 -2.734375 7.75 -2.359375 L 7.75 0 L 6.296875 0 L 6.296875 -2.359375 C 6.296875 -2.566406 6.253906 -2.757812 6.171875 -2.9375 C 6.085938 -3.113281 5.921875 -3.203125 5.671875 -3.203125 C 5.484375 -3.203125 5.332031 -3.148438 5.21875 -3.046875 C 5.101562 -2.941406 5.019531 -2.804688 4.96875 -2.640625 C 4.914062 -2.484375 4.890625 -2.328125 4.890625 -2.171875 Z M 4.890625 -2.171875 "/></g></g></g><g fill="#ffffff" fill-opacity="1"><g transform="translate(21.334594, 9.2653)"><g><path d="M 2.28125 -7.265625 L 3.359375 -7.265625 L 3.359375 -6.125 L 2.734375 -6.125 C 2.585938 -6.125 2.488281 -6.078125 2.4375 -5.984375 C 2.382812 -5.898438 2.359375 -5.753906 2.359375 -5.546875 L 2.359375 -4.265625 L 3.359375 -4.265625 L 3.359375 -3.140625 L 2.359375 -3.140625 L 2.359375 0 L 0.90625 0 L 0.90625 -3.140625 L 0.296875 -3.140625 L 0.296875 -4.265625 L 0.90625 -4.265625 L 0.90625 -5.71875 C 0.90625 -6.25 1.035156 -6.640625 1.296875 -6.890625 C 1.554688 -7.140625 1.882812 -7.265625 2.28125 -7.265625 Z M 2.28125 -7.265625 "/></g></g></g><g fill="#ffffff" fill-opacity="1"><g transform="translate(24.84898, 9.2653)"><g><path d="M 2.78125 -1 C 3.039062 -1 3.238281 -1.054688 3.375 -1.171875 C 3.519531 -1.285156 3.617188 -1.425781 3.671875 -1.59375 C 3.734375 -1.757812 3.765625 -1.9375 3.765625 -2.125 C 3.765625 -2.300781 3.734375 -2.472656 3.671875 -2.640625 C 3.609375 -2.804688 3.503906 -2.941406 3.359375 -3.046875 C 3.222656 -3.160156 3.03125 -3.21875 2.78125 -3.21875 C 2.53125 -3.21875 2.332031 -3.160156 2.1875 -3.046875 C 2.039062 -2.941406 1.9375 -2.804688 1.875 -2.640625 C 1.8125 -2.472656 1.78125 -2.300781 1.78125 -2.125 C 1.78125 -1.9375 1.804688 -1.757812 1.859375 -1.59375 C 1.921875 -1.425781 2.023438 -1.285156 2.171875 -1.171875 C 2.316406 -1.054688 2.519531 -1 2.78125 -1 Z M 2.78125 -4.359375 C 3.226562 -4.359375 3.632812 -4.265625 4 -4.078125 C 4.363281 -3.890625 4.65625 -3.628906 4.875 -3.296875 C 5.101562 -2.960938 5.21875 -2.570312 5.21875 -2.125 C 5.21875 -1.675781 5.109375 -1.285156 4.890625 -0.953125 C 4.671875 -0.617188 4.375 -0.359375 4 -0.171875 C 3.632812 0.00390625 3.226562 0.09375 2.78125 0.09375 C 2.332031 0.09375 1.921875 0.00390625 1.546875 -0.171875 C 1.171875 -0.359375 0.875 -0.617188 0.65625 -0.953125 C 0.445312 -1.285156 0.34375 -1.675781 0.34375 -2.125 C 0.34375 -2.570312 0.453125 -2.960938 0.671875 -3.296875 C 0.890625 -3.628906 1.179688 -3.890625 1.546875 -4.078125 C 1.921875 -4.265625 2.332031 -4.359375 2.78125 -4.359375 Z M 2.78125 -4.359375 "/></g></g></g><g fill="#ffffff" fill-opacity="1"><g transform="translate(30.396483, 9.2653)"><g><path d="M 3 -3.203125 C 2.8125 -3.203125 2.644531 -3.144531 2.5 -3.03125 C 2.351562 -2.925781 2.238281 -2.789062 2.15625 -2.625 C 2.070312 -2.46875 2.03125 -2.300781 2.03125 -2.125 L 2.03125 0 L 0.578125 0 L 0.578125 -4.265625 L 2.03125 -4.265625 L 2.03125 -3.75 C 2.144531 -3.90625 2.296875 -4.046875 2.484375 -4.171875 C 2.671875 -4.304688 2.894531 -4.375 3.15625 -4.375 C 3.21875 -4.375 3.289062 -4.363281 3.375 -4.34375 C 3.457031 -4.332031 3.53125 -4.304688 3.59375 -4.265625 L 3.59375 -2.953125 L 3.578125 -2.953125 C 3.503906 -3.046875 3.414062 -3.109375 3.3125 -3.140625 C 3.207031 -3.179688 3.101562 -3.203125 3 -3.203125 Z M 3 -3.203125 "/></g></g></g><g fill="#ffffff" fill-opacity="1"><g transform="translate(34.085138, 9.2653)"><g><path d="M 2.40625 -3.140625 L 2.40625 0 L 0.96875 0 L 0.96875 -3.140625 L 0.1875 -3.140625 L 0.1875 -4.265625 L 0.96875 -4.265625 L 0.96875 -5.90625 L 2.40625 -5.90625 L 2.40625 -4.265625 L 3.1875 -4.265625 L 3.1875 -3.140625 Z M 2.40625 -3.140625 "/></g></g></g></g></g><g fill="#ffffff" fill-opacity="1"><g transform="translate(137.625962, 224.120436)"><g><path d="M 4.296875 -2.640625 L 2.03125 -2.640625 L 2.03125 0 L 0.578125 0 L 0.578125 -6.59375 L 4.390625 -6.59375 L 4.390625 -5.265625 L 2.03125 -5.265625 L 2.03125 -3.96875 L 4.296875 -3.96875 Z M 4.296875 -2.640625 "/></g></g></g><g fill="#ffffff" fill-opacity="1"><g transform="translate(142.504544, 224.120436)"><g><path d="M 0.484375 -1.84375 L 0.484375 -4.265625 L 1.9375 -4.265625 L 1.9375 -1.84375 C 1.9375 -1.59375 1.988281 -1.398438 2.09375 -1.265625 C 2.195312 -1.128906 2.363281 -1.0625 2.59375 -1.0625 C 2.8125 -1.0625 3 -1.164062 3.15625 -1.375 C 3.320312 -1.59375 3.40625 -1.84375 3.40625 -2.125 L 3.40625 -4.265625 L 4.859375 -4.265625 L 4.859375 0 L 3.40625 0 L 3.40625 -0.515625 C 3.257812 -0.335938 3.070312 -0.191406 2.84375 -0.078125 C 2.625 0.0351562 2.375 0.09375 2.09375 0.09375 C 1.519531 0.09375 1.109375 -0.0820312 0.859375 -0.4375 C 0.609375 -0.800781 0.484375 -1.269531 0.484375 -1.84375 Z M 0.484375 -1.84375 "/></g></g></g><g fill="#ffffff" fill-opacity="1"><g transform="translate(147.93488, 224.120436)"><g><path d="M 4.53125 -2.96875 L 3.109375 -2.96875 C 3.085938 -3.164062 3.003906 -3.296875 2.859375 -3.359375 C 2.710938 -3.429688 2.566406 -3.46875 2.421875 -3.46875 C 2.273438 -3.46875 2.140625 -3.429688 2.015625 -3.359375 C 1.898438 -3.296875 1.84375 -3.203125 1.84375 -3.078125 C 1.84375 -2.972656 1.90625 -2.894531 2.03125 -2.84375 C 2.164062 -2.800781 2.335938 -2.765625 2.546875 -2.734375 C 2.765625 -2.703125 2.988281 -2.664062 3.21875 -2.625 C 3.457031 -2.582031 3.679688 -2.507812 3.890625 -2.40625 C 4.097656 -2.3125 4.265625 -2.175781 4.390625 -2 C 4.523438 -1.820312 4.59375 -1.582031 4.59375 -1.28125 C 4.59375 -0.945312 4.503906 -0.675781 4.328125 -0.46875 C 4.148438 -0.269531 3.90625 -0.125 3.59375 -0.03125 C 3.28125 0.0507812 2.914062 0.09375 2.5 0.09375 C 2.082031 0.09375 1.703125 0.0390625 1.359375 -0.0625 C 1.023438 -0.175781 0.753906 -0.359375 0.546875 -0.609375 C 0.335938 -0.859375 0.21875 -1.1875 0.1875 -1.59375 L 1.640625 -1.59375 C 1.640625 -1.375 1.691406 -1.21875 1.796875 -1.125 C 1.898438 -1.03125 2.019531 -0.96875 2.15625 -0.9375 C 2.300781 -0.914062 2.425781 -0.90625 2.53125 -0.90625 C 2.695312 -0.90625 2.835938 -0.9375 2.953125 -1 C 3.078125 -1.0625 3.140625 -1.148438 3.140625 -1.265625 C 3.140625 -1.410156 3.070312 -1.519531 2.9375 -1.59375 C 2.800781 -1.675781 2.628906 -1.738281 2.421875 -1.78125 C 2.210938 -1.820312 1.988281 -1.859375 1.75 -1.890625 C 1.519531 -1.929688 1.300781 -1.988281 1.09375 -2.0625 C 0.882812 -2.132812 0.710938 -2.242188 0.578125 -2.390625 C 0.441406 -2.546875 0.375 -2.753906 0.375 -3.015625 C 0.375 -3.453125 0.546875 -3.785156 0.890625 -4.015625 C 1.234375 -4.253906 1.753906 -4.375 2.453125 -4.375 C 3.015625 -4.375 3.484375 -4.257812 3.859375 -4.03125 C 4.242188 -3.8125 4.46875 -3.457031 4.53125 -2.96875 Z M 4.53125 -2.96875 "/></g></g></g><g fill="#ffffff" fill-opacity="1"><g transform="translate(152.823143, 224.120436)"><g><path d="M 0.5 -5.734375 C 0.5 -5.972656 0.582031 -6.175781 0.75 -6.34375 C 0.914062 -6.507812 1.117188 -6.59375 1.359375 -6.59375 C 1.585938 -6.59375 1.785156 -6.507812 1.953125 -6.34375 C 2.117188 -6.175781 2.203125 -5.972656 2.203125 -5.734375 C 2.203125 -5.503906 2.117188 -5.300781 1.953125 -5.125 C 1.785156 -4.957031 1.585938 -4.875 1.359375 -4.875 C 1.117188 -4.875 0.914062 -4.957031 0.75 -5.125 C 0.582031 -5.300781 0.5 -5.503906 0.5 -5.734375 Z M 2.078125 0 L 0.625 0 L 0.625 -4.265625 L 2.078125 -4.265625 Z M 2.078125 0 "/></g></g></g><g fill="#ffffff" fill-opacity="1"><g transform="translate(155.53347, 224.120436)"><g><path d="M 2.78125 -1 C 3.039062 -1 3.238281 -1.054688 3.375 -1.171875 C 3.519531 -1.285156 3.617188 -1.425781 3.671875 -1.59375 C 3.734375 -1.757812 3.765625 -1.9375 3.765625 -2.125 C 3.765625 -2.300781 3.734375 -2.472656 3.671875 -2.640625 C 3.609375 -2.804688 3.503906 -2.941406 3.359375 -3.046875 C 3.222656 -3.160156 3.03125 -3.21875 2.78125 -3.21875 C 2.53125 -3.21875 2.332031 -3.160156 2.1875 -3.046875 C 2.039062 -2.941406 1.9375 -2.804688 1.875 -2.640625 C 1.8125 -2.472656 1.78125 -2.300781 1.78125 -2.125 C 1.78125 -1.9375 1.804688 -1.757812 1.859375 -1.59375 C 1.921875 -1.425781 2.023438 -1.285156 2.171875 -1.171875 C 2.316406 -1.054688 2.519531 -1 2.78125 -1 Z M 2.78125 -4.359375 C 3.226562 -4.359375 3.632812 -4.265625 4 -4.078125 C 4.363281 -3.890625 4.65625 -3.628906 4.875 -3.296875 C 5.101562 -2.960938 5.21875 -2.570312 5.21875 -2.125 C 5.21875 -1.675781 5.109375 -1.285156 4.890625 -0.953125 C 4.671875 -0.617188 4.375 -0.359375 4 -0.171875 C 3.632812 0.00390625 3.226562 0.09375 2.78125 0.09375 C 2.332031 0.09375 1.921875 0.00390625 1.546875 -0.171875 C 1.171875 -0.359375 0.875 -0.617188 0.65625 -0.953125 C 0.445312 -1.285156 0.34375 -1.675781 0.34375 -2.125 C 0.34375 -2.570312 0.453125 -2.960938 0.671875 -3.296875 C 0.890625 -3.628906 1.179688 -3.890625 1.546875 -4.078125 C 1.921875 -4.265625 2.332031 -4.359375 2.78125 -4.359375 Z M 2.78125 -4.359375 "/></g></g></g><g fill="#ffffff" fill-opacity="1"><g transform="translate(161.079963, 224.120436)"><g><path d="M 4.953125 -2.421875 L 4.953125 0 L 3.5 0 L 3.5 -2.421875 C 3.5 -2.671875 3.445312 -2.863281 3.34375 -3 C 3.238281 -3.132812 3.070312 -3.203125 2.84375 -3.203125 C 2.625 -3.203125 2.429688 -3.09375 2.265625 -2.875 C 2.109375 -2.664062 2.03125 -2.414062 2.03125 -2.125 L 2.03125 0 L 0.578125 0 L 0.578125 -4.265625 L 2.03125 -4.265625 L 2.03125 -3.75 C 2.175781 -3.9375 2.359375 -4.085938 2.578125 -4.203125 C 2.804688 -4.316406 3.0625 -4.375 3.34375 -4.375 C 3.914062 -4.375 4.328125 -4.191406 4.578125 -3.828125 C 4.828125 -3.472656 4.953125 -3.003906 4.953125 -2.421875 Z M 4.953125 -2.421875 "/></g></g></g><g transform="matrix(1, 0, 0, 1, 87, 208)"><g clip-path="url(#040f2ff311)"><g fill="#ffffff" fill-opacity="1"><g transform="translate(1.3715, 14.675242)"><g><path d="M 0.828125 -1.21875 C 0.828125 -1.601562 0.957031 -1.929688 1.21875 -2.203125 C 1.488281 -2.472656 1.820312 -2.609375 2.21875 -2.609375 C 2.59375 -2.609375 2.914062 -2.472656 3.1875 -2.203125 C 3.46875 -1.929688 3.609375 -1.601562 3.609375 -1.21875 C 3.609375 -0.832031 3.46875 -0.503906 3.1875 -0.234375 C 2.914062 0.0234375 2.59375 0.15625 2.21875 0.15625 C 1.820312 0.15625 1.488281 0.0234375 1.21875 -0.234375 C 0.957031 -0.503906 0.828125 -0.832031 0.828125 -1.21875 Z M 0.828125 -1.21875 "/></g></g></g></g></g><g fill="#ffffff" fill-opacity="1"><g transform="translate(131.984321, 222.662052)"><g><path d="M 0.828125 -1.21875 C 0.828125 -1.601562 0.957031 -1.929688 1.21875 -2.203125 C 1.488281 -2.472656 1.820312 -2.609375 2.21875 -2.609375 C 2.59375 -2.609375 2.914062 -2.472656 3.1875 -2.203125 C 3.46875 -1.929688 3.609375 -1.601562 3.609375 -1.21875 C 3.609375 -0.832031 3.46875 -0.503906 3.1875 -0.234375 C 2.914062 0.0234375 2.59375 0.15625 2.21875 0.15625 C 1.820312 0.15625 1.488281 0.0234375 1.21875 -0.234375 C 0.957031 -0.503906 0.828125 -0.832031 0.828125 -1.21875 Z M 0.828125 -1.21875 "/></g></g></g><g transform="matrix(1, 0, 0, 1, 167, 208)"><g clip-path="url(#6db361e4cd)"><g fill="#ffffff" fill-opacity="1"><g transform="translate(0.599862, 14.675242)"><g><path d="M 0.828125 -1.21875 C 0.828125 -1.601562 0.957031 -1.929688 1.21875 -2.203125 C 1.488281 -2.472656 1.820312 -2.609375 2.21875 -2.609375 C 2.59375 -2.609375 2.914062 -2.472656 3.1875 -2.203125 C 3.46875 -1.929688 3.609375 -1.601562 3.609375 -1.21875 C 3.609375 -0.832031 3.46875 -0.503906 3.1875 -0.234375 C 2.914062 0.0234375 2.59375 0.15625 2.21875 0.15625 C 1.820312 0.15625 1.488281 0.0234375 1.21875 -0.234375 C 0.957031 -0.503906 0.828125 -0.832031 0.828125 -1.21875 Z M 0.828125 -1.21875 "/></g></g></g></g></g><g transform="matrix(1, 0, 0, 1, 172, 215)"><g clip-path="url(#1d9565a144)"><g fill="#ffffff" fill-opacity="1"><g transform="translate(0.854503, 9.49991)"><g><path d="M 4.203125 -6.59375 L 5.75 -6.59375 L 5.75 0 L 4.203125 0 L 4.203125 -2.640625 L 2.03125 -2.640625 L 2.03125 0 L 0.578125 0 L 0.578125 -6.59375 L 2.03125 -6.59375 L 2.03125 -3.96875 L 4.203125 -3.96875 Z M 4.203125 -6.59375 "/></g></g></g><g fill="#ffffff" fill-opacity="1"><g transform="translate(7.186207, 9.49991)"><g><path d="M 3.921875 -2.125 C 3.921875 -2.3125 3.875 -2.484375 3.78125 -2.640625 C 3.695312 -2.804688 3.578125 -2.941406 3.421875 -3.046875 C 3.273438 -3.148438 3.101562 -3.203125 2.90625 -3.203125 C 2.707031 -3.203125 2.53125 -3.148438 2.375 -3.046875 C 2.226562 -2.941406 2.109375 -2.804688 2.015625 -2.640625 C 1.929688 -2.484375 1.890625 -2.3125 1.890625 -2.125 C 1.890625 -1.9375 1.929688 -1.757812 2.015625 -1.59375 C 2.109375 -1.4375 2.226562 -1.304688 2.375 -1.203125 C 2.53125 -1.109375 2.707031 -1.0625 2.90625 -1.0625 C 3.101562 -1.0625 3.273438 -1.109375 3.421875 -1.203125 C 3.578125 -1.304688 3.695312 -1.4375 3.78125 -1.59375 C 3.875 -1.757812 3.921875 -1.9375 3.921875 -2.125 Z M 5.375 -4.265625 L 5.375 0 L 3.921875 0 L 3.921875 -0.515625 C 3.773438 -0.296875 3.5625 -0.140625 3.28125 -0.046875 C 3.007812 0.046875 2.734375 0.09375 2.453125 0.09375 C 2.054688 0.09375 1.695312 -0.00390625 1.375 -0.203125 C 1.050781 -0.410156 0.796875 -0.6875 0.609375 -1.03125 C 0.429688 -1.375 0.34375 -1.738281 0.34375 -2.125 C 0.34375 -2.519531 0.429688 -2.882812 0.609375 -3.21875 C 0.796875 -3.5625 1.050781 -3.835938 1.375 -4.046875 C 1.695312 -4.265625 2.054688 -4.375 2.453125 -4.375 C 2.734375 -4.375 3 -4.328125 3.25 -4.234375 C 3.507812 -4.140625 3.734375 -3.976562 3.921875 -3.75 L 3.921875 -4.265625 Z M 5.375 -4.265625 "/></g></g></g><g fill="#ffffff" fill-opacity="1"><g transform="translate(13.140332, 9.49991)"><g><path d="M 2.03125 0 L 0.578125 0 L 0.578125 -7.265625 L 2.03125 -7.265625 Z M 2.03125 0 "/></g></g></g><g fill="#ffffff" fill-opacity="1"><g transform="translate(15.75434, 9.49991)"><g><path d="M 3.921875 -2.125 C 3.921875 -2.3125 3.875 -2.484375 3.78125 -2.640625 C 3.695312 -2.804688 3.578125 -2.941406 3.421875 -3.046875 C 3.273438 -3.148438 3.101562 -3.203125 2.90625 -3.203125 C 2.707031 -3.203125 2.53125 -3.148438 2.375 -3.046875 C 2.226562 -2.941406 2.109375 -2.804688 2.015625 -2.640625 C 1.929688 -2.484375 1.890625 -2.3125 1.890625 -2.125 C 1.890625 -1.9375 1.929688 -1.757812 2.015625 -1.59375 C 2.109375 -1.4375 2.226562 -1.304688 2.375 -1.203125 C 2.53125 -1.109375 2.707031 -1.0625 2.90625 -1.0625 C 3.101562 -1.0625 3.273438 -1.109375 3.421875 -1.203125 C 3.578125 -1.304688 3.695312 -1.4375 3.78125 -1.59375 C 3.875 -1.757812 3.921875 -1.9375 3.921875 -2.125 Z M 5.375 -4.265625 L 5.375 0 L 3.921875 0 L 3.921875 -0.515625 C 3.773438 -0.296875 3.5625 -0.140625 3.28125 -0.046875 C 3.007812 0.046875 2.734375 0.09375 2.453125 0.09375 C 2.054688 0.09375 1.695312 -0.00390625 1.375 -0.203125 C 1.050781 -0.410156 0.796875 -0.6875 0.609375 -1.03125 C 0.429688 -1.375 0.34375 -1.738281 0.34375 -2.125 C 0.34375 -2.519531 0.429688 -2.882812 0.609375 -3.21875 C 0.796875 -3.5625 1.050781 -3.835938 1.375 -4.046875 C 1.695312 -4.265625 2.054688 -4.375 2.453125 -4.375 C 2.734375 -4.375 3 -4.328125 3.25 -4.234375 C 3.507812 -4.140625 3.734375 -3.976562 3.921875 -3.75 L 3.921875 -4.265625 Z M 5.375 -4.265625 "/></g></g></g><g fill="#ffffff" fill-opacity="1"><g transform="translate(21.708464, 9.49991)"><g><path d="M 2.03125 0 L 0.578125 0 L 0.578125 -7.265625 L 2.03125 -7.265625 Z M 2.03125 0 "/></g></g></g></g></g></svg>